<svg width="20" height="20" viewBox="0 0 20 20" fill="none" xmlns="http://www.w3.org/2000/svg">
<path d="M19.7321 11.0086L18.1991 5.76359C17.7046 4.07355 16.6312 2.58936 15.1496 1.54683C13.6679 0.504305 11.863 -0.0367657 10.0214 0.00958413C8.17992 0.055934 6.40748 0.687046 4.98572 1.80265C3.56395 2.91826 2.57442 4.45437 2.17433 6.16693L0.989577 11.2411C0.833279 11.911 0.836933 12.6058 1.00027 13.2742C1.16361 13.9426 1.48246 14.5675 1.93329 15.1029C2.38413 15.6382 2.95543 16.0703 3.60505 16.3673C4.25466 16.6642 4.96601 16.8185 5.68658 16.8186H6.03658C6.31503 17.7357 6.89884 18.5418 7.70006 19.1155C8.50129 19.6891 9.47655 19.9993 10.479 19.9993C11.4814 19.9993 12.4566 19.6891 13.2578 19.1155C14.0591 18.5418 14.6429 17.7357 14.9213 16.8186H15.0902C15.8321 16.8187 16.5641 16.6554 17.2288 16.3415C17.8935 16.0275 18.473 15.5715 18.922 15.009C19.371 14.4465 19.6773 13.7927 19.8171 13.0987C19.9569 12.4048 19.9263 11.6894 19.7277 11.0086H19.7321ZM16.8367 13.4953C16.6336 13.7521 16.3703 13.9603 16.0679 14.1032C15.7655 14.2461 15.4322 14.3199 15.0946 14.3186H5.68658C5.35907 14.3185 5.03576 14.2484 4.7405 14.1135C4.44524 13.9785 4.18557 13.7821 3.98065 13.5388C3.77573 13.2955 3.63079 13.0114 3.55653 12.7077C3.48227 12.4039 3.48057 12.0881 3.55158 11.7836L4.73633 6.70026C5.00838 5.53032 5.68355 4.48067 6.65437 3.71842C7.62518 2.95616 8.83583 2.5251 10.0936 2.49386C11.3514 2.46262 12.584 2.83299 13.5952 3.54602C14.6064 4.25905 15.3381 5.27375 15.6738 6.42859L17.2033 11.6736C17.2956 11.9834 17.3105 12.3095 17.2469 12.6258C17.1832 12.9421 17.0427 13.2399 16.8367 13.4953Z" fill="#374957"/>
</svg>
